<svg width="24" height="24" viewBox="0 0 24 24" fill="none" xmlns="http://www.w3.org/2000/svg">
<path d="M18 2.5C18.1223 2.50003 18.2406 2.54475 18.332 2.62598C18.4235 2.70733 18.4817 2.81983 18.4961 2.94141L18.5 3.0127V7L18.4912 7.09082C18.4747 7.17982 18.4349 7.26351 18.374 7.33203C18.2931 7.423 18.1813 7.48035 18.0605 7.49512L17.9863 7.5H15C14.7239 7.5 14.5 7.72386 14.5 8V9C14.5 9.27614 14.7239 9.5 15 9.5H18C18.0711 9.50005 18.1413 9.51555 18.2061 9.54492C18.2709 9.57432 18.3291 9.61737 18.376 9.6709C18.4227 9.72435 18.4579 9.78751 18.4785 9.85547C18.4988 9.92282 18.5041 9.99371 18.4951 10.0635L18.4795 10.1475L17.4863 14.1211C17.4615 14.2198 17.4067 14.309 17.3301 14.376C17.2541 14.4423 17.1597 14.4833 17.0596 14.4951L16.9854 14.5H15C14.7239 14.5 14.5 14.7239 14.5 15V21L14.4912 21.0908C14.4747 21.1798 14.4349 21.2635 14.374 21.332C14.2931 21.423 14.1813 21.4803 14.0605 21.4951L13.9863 21.5H10C9.87766 21.5 9.75944 21.4553 9.66797 21.374C9.5993 21.313 9.54923 21.2342 9.52246 21.1475L9.50391 21.0586L9.5 20.9863V15C9.5 14.7239 9.27614 14.5 9 14.5H7C6.87766 14.5 6.75944 14.4553 6.66797 14.374C6.5993 14.313 6.54923 14.2342 6.52246 14.1475L6.50391 14.0586L6.5 13.9863V10L6.50879 9.90918C6.52527 9.82018 6.56512 9.73649 6.62598 9.66797C6.70668 9.57721 6.81802 9.51884 6.93848 9.50391L7.01367 9.5H9C9.27614 9.5 9.5 9.27614 9.5 9V8L9.50684 7.7334C9.57111 6.40705 10.1137 5.14532 11.0391 4.18457C12.026 3.1599 13.3713 2.55647 14.793 2.50293L15.0088 2.5H18Z" fill="white" stroke="#013369" stroke-linecap="round" stroke-linejoin="round"/>
</svg>
